<svg id="flat" height="512" viewBox="0 0 64 64" width="512" xmlns="http://www.w3.org/2000/svg"><path d="m42.97658 17.64511a11.72754 11.72754 0 0 0 -4.08487-.64456c-3.80617.03355-10.02753.01925-13.8338-.00038a11.70706 11.70706 0 0 0 -4.0327.64454 11.99512 11.99512 0 0 0 -8.02521 11.305 29.891 29.891 0 0 0 5.02018 16.58054l3.31572 4.97359a5.60553 5.60553 0 0 0 4.6641 2.49616h1a2 2 0 0 1 2 2v2.98058a3 3 0 0 0 2.98064 2.99993 3 3 0 0 0 3.01936-2.99993v-1.98058a3 3 0 0 1 3-3 5.60553 5.60553 0 0 0 4.66409-2.49615l3.31572-4.97359a29.891 29.891 0 0 0 5.02019-16.58054 11.99576 11.99576 0 0 0 -8.02342-11.30461z" fill="#b64b6d"/><path d="m27 17v-5.8277a6 6 0 0 0 -1.39067-3.84111l-1.14771-1.37725a1.801 1.801 0 0 1 1.38355-2.95394h.40883a1.801 1.801 0 0 1 1.27348.52749l3.88672 3.88672a2 2 0 0 1 .5858 1.41422v8.17157z" fill="#45b365"/><g fill="#993f5c"><path d="m50.96124 30h-5.96124v2h5.82471q.10229-.99591.13653-2z"/><path d="m13.07568 31h5.92432v-2h-5.99817c.00117.66882.02817 1.33563.07385 2z"/><path d="m25 40h-9.87091q.404 1.015.882 2h8.98891z"/><path d="m45.667 46h-9.667v2h8.333z"/><path d="m39 27h2v2h-2z"/><path d="m22 24h2v2h-2z"/><path d="m30 44h2v2h-2z"/><path d="m26 35h2v2h-2z"/></g><path d="m31 17v-4.31625a10 10 0 0 1 3.59816-7.68221l1.90093-1.58411a1.801 1.801 0 0 1 1.15291-.41743 1.801 1.801 0 0 1 1.27348 3.07447l-.58238.58238a8 8 0 0 0 -2.3431 5.65686v4.68629" fill="#4fcc73"/></svg>