<svg height="512pt" viewBox="-75 0 512 512.00049" width="512pt" xmlns="http://www.w3.org/2000/svg"><path d="m272.855469 87.253906c-4.269531-2.988281-10.027344-2.347656-13.65625 1.28125-14.078125 14.078125-29.652344 18.773438-37.972657 16.210938-2.773437-.851563-6.613281-2.773438-8.105468-10.664063-2.773438-15.363281 25.171875-27.523437 35.199218-30.507812 2.988282-.855469 5.546876-3.199219 6.828126-5.972657 1.277343-2.988281 1.066406-6.1875-.429688-9.175781 0 0-12.371094-23.890625-21.117188-42.453125-1.707031-3.625-5.335937-5.972656-9.386718-5.972656-57.386719-.210938-68.269532 68.695312-72.535156 94.933594-.425782 2.132812-.640626 3.839844-.851563 5.332031-3.839844.640625-17.496094 1.066406-50.132813-14.078125-3.414062-1.28125-7.253906-1.066406-10.242187.851562-3.199219 1.707032-5.121094 5.121094-5.121094 8.75-.636719 25.171876 13.015625 37.757813 23.042969 46.929688 4.480469 4.054688 8.320312 7.683594 10.023438 11.308594 1.921874 3.625 5.546874 5.972656 9.601562 5.972656h.855469l117.332031-10.667969c3.625-.425781 6.824219-2.34375 8.53125-5.542969.429688-.855468 12.800781-23.683593 21.546875-43.308593 2.347656-4.691407.640625-10.238281-3.410156-13.226563zm0 0" fill="#4caf50"/><path d="m321.492188 127.574219c-31.359376-20.054688-70.613282-2.132813-94.078126 8.53125l-7.679687 3.414062c-1.492187.640625-2.773437 1.707031-3.839844 2.988281l-4.480469 5.332032c-1.921874 2.132812-2.773437 5.121094-2.347656 8.105468.425782 2.988282 1.707032 5.546876 4.054688 7.253907 29.4375 22.613281 70.824218 90.667969 17.066406 291.414062-2.347656 6.402344-5.121094 11.734375-8.105469 15.789063-3.414062 4.691406-2.5625 11.089844 1.917969 14.71875l4.054688 3.199218c.851562.640626 1.707031 1.066407 2.773437 1.492188 5.757813 2.347656 11.730469 3.414062 17.492187 3.414062 9.8125 0 19.625-3.199218 28.800782-9.386718 55.464844-37.972656 85.546875-178.558594 85.546875-227.839844 0-68.691406-13.441407-110.71875-41.175781-128.425781zm0 0" fill="#ffa000"/><path d="m149.332031 142.082031c-3.625-1.066406-8.320312-3.203125-14.292969-5.976562-23.464843-10.664063-62.71875-28.585938-94.078124-8.53125-27.519532 17.917969-40.960938 59.945312-40.960938 128.425781 0 49.492188 30.507812 190.71875 86.828125 227.414062 9.386719 6.1875 19.199219 9.171876 29.226563 9.171876 7.039062 0 14.292968-1.492188 21.332031-4.691407 3.199219-1.492187 5.761719-4.265625 6.398437-7.679687.640625-3.414063-.210937-6.828125-2.773437-9.386719-3.410157-4.90625-6.183594-10.242187-7.890625-15.148437-54.1875-201.386719-13.015625-269.867188 16.640625-292.691407.636719-.640625 1.492187-1.066406 2.132812-1.496093 3.625-2.132813 5.757813-6.398438 5.117188-10.664063-.425781-4.269531-3.410157-7.679687-7.679688-8.746094zm0 0" fill="#ffa000"/><path d="m226.132812 146.132812c-12.800781-9.597656-27.734374-16-43.304687-18.132812-1.066406 0-1.921875 0-2.773437 0-14.082032 1.921875-27.308594 7.039062-38.828126 15.148438-1.492187.851562-3.199218 2.132812-4.480468 2.984374-41.171875 31.789063-78.71875 112.214844-24.105469 315.519532 2.558594 7.46875 6.1875 14.722656 10.027344 19.839844.210937.640624 1.492187 2.136718 1.917969 2.773437 13.226562 18.136719 32.855468 27.734375 56.746093 27.734375 30.933594 0 48.640625-15.785156 57.816407-28.800781 4.476562-5.972657 8.105468-12.796875 11.09375-21.332031 0-.214844.210937-.640626.210937-.851563 54.402344-202.882813 16.640625-283.308594-24.320313-314.882813zm0 0" fill="#ffc107"/><path d="m248.320312 493.441406c-5.761718 0-11.734374-1.066406-17.492187-3.414062-5.546875-2.132813-8.109375-8.320313-5.972656-13.867188 2.132812-5.546875 8.316406-8.105468 13.863281-5.972656 8.960938 3.625 17.28125 2.347656 26.453125-3.839844 43.308594-29.441406 76.375-157.441406 76.375-210.132812 0-59.09375-10.878906-97.28125-31.359375-110.507813-21.546875-13.867187-52.90625.425781-73.601562 10.027344l-8.320313 3.414063c-5.332031 2.34375-11.730469-.214844-14.078125-5.546876-2.347656-5.335937.210938-11.734374 5.546875-14.082031l7.679687-3.414062c23.464844-10.664063 62.71875-28.585938 94.078126-8.53125 27.734374 17.707031 41.175781 59.734375 41.175781 128.425781 0 49.28125-30.082031 190.082031-85.546875 227.839844-9.386719 6.402344-19.199219 9.601562-28.800782 9.601562zm0 0"/><path d="m181.332031 512c-33.277343 0-59.519531-18.558594-70.398437-49.492188-1.921875-5.546874 1.066406-11.734374 6.613281-13.652343 5.546875-1.921875 11.734375 1.066406 13.652344 6.613281 3.628906 10.664062 15.789062 35.199219 50.132812 35.199219 34.347657 0 46.507813-24.746094 50.136719-35.414063 1.917969-5.546875 7.890625-8.535156 13.4375-6.613281 5.546875 1.917969 8.535156 7.894531 6.613281 13.652344-10.453125 31.148437-36.90625 49.707031-70.1875 49.707031zm0 0"/><path d="m266.667969 298.667969c-5.972657 0-10.667969-4.695313-10.667969-10.667969 0-113.492188-50.988281-134.828125-74.667969-138.453125-23.679687 3.839844-74.664062 24.960937-74.664062 138.453125 0 5.972656-4.695313 10.667969-10.667969 10.667969s-10.667969-4.695313-10.667969-10.667969c0-136.320312 72.320313-156.800781 94.507813-160h2.988281c22.183594 2.988281 94.503906 23.46875 94.503906 160 0 5.972656-4.691406 10.667969-10.664062 10.667969zm0 0"/><path d="m116.054688 492.585938c-11.09375 0-22.1875-3.839844-32.429688-11.304688-55.25-40.535156-83.625-176.214844-83.625-225.28125 0-68.691406 13.441406-110.71875 41.171875-128.425781 31.363281-20.054688 70.613281-2.132813 94.082031 8.53125l7.679688 3.414062c5.332031 2.347657 7.894531 8.535157 5.546875 14.082031-2.347657 5.332032-8.746094 7.890626-14.082031 5.546876l-8.105469-3.628907c-20.691407-9.597656-52.050781-23.890625-73.597657-10.027343-20.480468 13.226562-31.363281 51.414062-31.363281 110.507812 0 53.761719 30.933594 175.789062 74.882813 208 9.597656 7.039062 18.984375 8.960938 28.585937 5.972656 5.757813-1.917968 11.519531 1.28125 13.441407 7.042969 1.703124 5.542969-1.28125 11.519531-7.042969 13.4375-4.90625 1.28125-10.027344 2.132813-15.144531 2.132813zm0 0"/><path d="m128 160c-3.839844 0-7.679688-2.132812-9.601562-5.972656-1.703126-3.625-5.542969-7.253906-10.023438-11.308594-10.027344-9.171875-23.679688-21.757812-23.042969-46.929688 0-3.628906 1.921875-6.828124 5.121094-8.75 2.988281-1.917968 6.828125-2.132812 10.027344-.636718 32.640625 14.929687 46.292969 14.71875 50.132812 14.078125.214844-1.492188.425781-3.199219.855469-5.332031 4.265625-26.242188 15.144531-95.148438 72.53125-94.933594 4.054688 0 7.679688 2.34375 9.386719 5.972656 8.746093 18.558594 21.121093 42.238281 21.121093 42.453125 1.492188 2.773437 1.492188 6.1875.425782 9.171875-1.28125 2.988281-3.625 5.121094-6.828125 5.976562-10.023438 2.984376-38.183594 15.144532-35.199219 30.503907 1.492188 7.679687 5.335938 9.8125 8.105469 10.667969 8.320312 2.558593 23.894531-2.132813 37.976562-16.214844 3.625-3.625 9.386719-4.265625 13.652344-1.277344 4.265625 2.984375 5.757813 8.53125 3.625 13.226562-8.957031 19.625-21.117187 42.453126-21.546875 43.304688-2.773438 5.121094-9.171875 7.039062-14.503906 4.265625-5.121094-2.773437-7.042969-9.171875-4.269532-14.503906 0 0 1.921876-3.628907 4.910157-9.175781-9.175781 2.773437-18.136719 2.988281-25.816407.640624-12.160156-3.625-20.050781-13.4375-22.613281-27.09375-4.691406-24.746093 18.132813-41.8125 38.1875-50.558593-3.625-7.039063-8.320312-16.640625-12.800781-25.8125-29.226562 4.480469-39.464844 42.878906-45.011719 76.796875-1.28125 7.683594-1.707031 10.667968-3.414062 13.441406-5.332031 9.171875-20.054688 16-58.667969 1.707031 2.988281 4.90625 7.253906 8.960938 12.160156 13.441407 5.546875 5.117187 11.09375 10.238281 14.722656 17.492187 2.558594 5.332031.425782 11.734375-4.695312 14.292969-1.707031.640625-3.199219 1.066406-4.90625 1.066406zm0 0"/></svg>