<svg height="512pt" viewBox="0 -21 512.00001 512" width="512pt" xmlns="http://www.w3.org/2000/svg"><path d="m157.144531 4.664062c3.585938-6.21875 12.449219-6.21875 16.035157 0 31.851562 55.234376 148.15625 84.664063 156.527343 174.261719 7.390625 79.097657-51.960937 143.8125-164.546875 143.8125-112.582031 0-171.933594-64.714843-164.542968-143.8125 8.371093-89.597656 124.671874-119.027343 156.527343-174.261719zm0 0" fill="#c8afeb"/><path d="m157.144531 4.664062c-31.855469 55.234376-148.15625 84.664063-156.527343 174.261719-7.390626 79.097657 51.960937 143.8125 164.542968 143.8125v-322.738281c-3.109375 0-6.222656 1.554688-8.015625 4.664062zm0 0" fill="#9678cd"/><path d="m43.972656 129.304688c.992188-12.789063 3.550782-24.523438 7.265625-35.445313-26.074219 22.28125-47.226562 48.726563-50.621093 85.066406-7.390626 79.097657 51.960937 143.8125 164.542968 143.8125v-25.042969c-84.207031-17.484374-127.5625-86.449218-121.1875-168.390624zm0 0" fill="#7d64b6"/><path d="m160.753906 4.664062c1.96875-6.21875 6.84375-6.21875 8.816406 0 17.519532 55.234376 81.488282 84.664063 86.089844 174.261719 4.066406 79.097657-28.578125 143.8125-90.5 143.8125s-94.5625-64.714843-90.5-143.8125c4.605469-89.597656 68.574219-119.027343 86.09375-174.261719zm0 0" fill="#aa91dc"/><path d="m83.140625 253.25c13.296875 41.601562 41.023437 69.523438 82.019531 69.488281 0 0 12.167969-.023437 20.644532-.671875l4.644531-22.710937c-37.417969-.773438-87.15625-24.449219-107.308594-46.105469zm0 0" fill="#9678cd"/><path d="m338.820312 152.636719c3.585938-6.21875 12.449219-6.21875 16.035157 0 31.855469 55.230469 148.15625 84.664062 156.527343 174.261719 7.390626 79.097656-51.960937 143.8125-164.542968 143.8125-112.582032 0-171.9375-64.714844-164.546875-143.8125 8.371093-89.597657 124.675781-119.03125 156.527343-174.261719zm0 0" fill="#c8afeb"/><path d="m494.941406 328.433594c-4.441406-47.511719-46.011718-76.765625-86.214844-105.058594-21.328124-15.007812-41.75-29.378906-56.464843-46.273438-2.832031-3.253906-8.011719-3.253906-10.84375 0-14.71875 16.894532-35.136719 31.265626-56.464844 46.273438-40.203125 28.292969-81.777344 57.546875-86.214844 105.058594-2.953125 31.597656 6.015625 59.851562 25.929688 81.714844 25.871093 28.402343 69.261719 44.046874 122.171875 44.046874s96.296875-15.644531 122.171875-44.046874c19.914062-21.863282 28.878906-50.117188 25.929687-81.714844zm0 0" fill="#fff6d8"/><path d="m478.496094 329.972656c-3.730469-39.925781-40.425782-65.75-79.277344-93.089844-9.046875-6.371093-17.945312-12.628906-26.386719-19.050781-7.699219-5.855469-16.847656-8.785156-25.992187-8.785156-9.148438 0-18.292969 2.929687-25.992188 8.785156-8.445312 6.421875-17.339844 12.679688-26.390625 19.050781-38.847656 27.339844-75.542969 53.160157-79.273437 93.089844-2.507813 26.84375 4.992187 50.71875 21.695312 69.054688 14.019532 15.394531 34.328125 26.449218 59.160156 32.660156 20.839844 5.210938 41.492188-9.359375 43.867188-30.707031l2.726562-24.535157c.277344-2.511718 2.242188-3.769531 4.207032-3.769531 1.960937 0 3.925781 1.257813 4.207031 3.769531l2.722656 24.535157c2.375 21.347656 23.03125 35.917969 43.867188 30.707031 24.832031-6.210938 45.140625-17.265625 59.164062-32.660156 16.699219-18.332032 24.203125-42.210938 21.695313-69.054688zm0 0" fill="#e6646e"/><path d="m404.644531 330.324219c0-31.925781-25.878906-57.808594-57.804687-57.808594-31.925782 0-57.808594 25.882813-57.808594 57.808594 0 30.078125 22.976562 54.769531 52.332031 57.527343l1.269531-11.40625c.277344-2.511718 2.242188-3.765624 4.207032-3.765624s3.929687 1.253906 4.207031 3.765624l1.269531 11.40625c29.351563-2.757812 52.328125-27.449218 52.328125-57.527343zm0 0" fill="#ff8087"/><g fill="#ffaa5f"><path d="m267.878906 371.785156c-2.460937 0-4.894531-1.09375-6.523437-3.1875-2.804688-3.597656-2.152344-8.789062 1.445312-11.589844l4.644531-3.613281c3.613282-2.792969 8.789063-2.140625 11.585938 1.453125 2.808594 3.597656 2.15625 8.785156-1.441406 11.585938l-4.644532 3.613281c-1.511718 1.171875-3.300781 1.738281-5.066406 1.738281zm0 0"/><path d="m265.453125 331.011719c-1.808594 0-3.628906-.59375-5.152344-1.808594l-2.582031-2.066406c-3.558594-2.847657-4.136719-8.042969-1.289062-11.605469 2.859374-3.558594 8.046874-4.140625 11.609374-1.289062l2.582032 2.066406c3.558594 2.847656 4.136718 8.042968 1.289062 11.605468-1.636718 2.039063-4.03125 3.097657-6.457031 3.097657zm0 0"/><path d="m304.871094 291.785156c-2.371094 0-4.71875-1.011718-6.355469-2.96875l-2.582031-3.097656c-2.917969-3.503906-2.441406-8.710938 1.058594-11.628906 3.523437-2.925782 8.71875-2.445313 11.636718 1.054687l2.582032 3.097657c2.917968 3.503906 2.441406 8.710937-1.058594 11.628906-1.546875 1.285156-3.417969 1.914062-5.28125 1.914062zm0 0"/><path d="m347.878906 252.902344c-2.804687 0-5.539062-1.425782-7.089844-4.007813-2.347656-3.910156-1.078124-8.984375 2.832032-11.328125l2.582031-1.550781c3.917969-2.351563 8.984375-1.082031 11.328125 2.832031 2.347656 3.910156 1.082031 8.984375-2.828125 11.332032l-2.582031 1.546874c-1.332032.796876-2.796875 1.175782-4.242188 1.175782zm0 0"/><path d="m388.136719 290.582031c-2.554688 0-5.074219-1.175781-6.683594-3.398437-2.6875-3.691406-1.871094-8.855469 1.820313-11.535156l5.679687-4.132813c3.691406-2.683594 8.855469-1.863281 11.53125 1.820313 2.683594 3.691406 1.871094 8.855468-1.824219 11.535156l-5.675781 4.128906c-1.46875 1.070312-3.160156 1.582031-4.847656 1.582031zm0 0"/><path d="m418.402344 323.441406c-3.855469 0-7.304688-2.714844-8.089844-6.636718l-1.03125-5.164063c-.894531-4.46875 2.007812-8.820313 6.476562-9.714844 4.515626-.886719 8.824219 2.011719 9.71875 6.476563l1.03125 5.160156c.894532 4.472656-2.007812 8.820312-6.476562 9.71875-.546875.105469-1.097656.160156-1.628906.160156zm0 0"/><path d="m437.152344 359.742188c-1.242188 0-2.5-.277344-3.683594-.871094l-4.128906-2.066406c-4.082032-2.039063-5.734375-7-3.695313-11.078126 2.039063-4.082031 7-5.734374 11.082031-3.695312l4.128907 2.066406c4.082031 2.039063 5.734375 7 3.695312 11.078125-1.453125 2.898438-4.367187 4.566407-7.398437 4.566407zm0 0"/></g><path d="m409.460938 397.078125c-4.566407 0-8.257813-3.699219-8.257813-8.257813v-1.03125c0-4.5625 3.691406-8.257812 8.257813-8.257812 4.5625 0 8.257812 3.695312 8.257812 8.257812v1.03125c0 4.558594-3.695312 8.257813-8.257812 8.257813zm0 0" fill="#ffc369"/><path d="m310.371094 346.839844c-2.816406 0-5.546875-1.433594-7.097656-4.019532l-5-8.367187c-2.339844-3.914063-1.0625-8.988281 2.855468-11.328125 3.894532-2.355469 8.976563-1.066406 11.324219 2.851562l5 8.367188c2.335937 3.914062 1.0625 8.988281-2.855469 11.328125-1.324218.792969-2.78125 1.167969-4.226562 1.167969zm0 0" fill="#ffc369"/><path d="m357.167969 330.839844c-2.515625 0-4.992188-1.140625-6.613281-3.300782-2.742188-3.652343-2-8.828124 1.65625-11.5625l2.0625-1.546874c3.644531-2.753907 8.824218-1.996094 11.554687 1.648437 2.742187 3.648437 2 8.828125-1.652344 11.558594l-2.0625 1.550781c-1.484375 1.117188-3.21875 1.652344-4.945312 1.652344zm0 0" fill="#ffc369"/><path d="m301.410156 400.515625c-1.554687 0-3.136718-.4375-4.539062-1.363281l-2.152344-1.417969c-3.808594-2.511719-4.855469-7.632813-2.347656-11.441406 2.515625-3.796875 7.628906-4.859375 11.445312-2.347657l2.152344 1.417969c3.804688 2.511719 4.855469 7.632813 2.347656 11.4375-1.589844 2.410157-4.21875 3.714844-6.90625 3.714844zm0 0" fill="#ffc369"/><path d="m339.953125 295.226562c-1.726563 0-3.460937-.535156-4.945313-1.652343l-2.066406-1.546875c-3.652344-2.734375-4.394531-7.914063-1.652344-11.5625 2.734376-3.640625 7.921876-4.386719 11.558594-1.648438l2.0625 1.546875c3.652344 2.734375 4.394532 7.914063 1.652344 11.5625-1.617188 2.160157-4.09375 3.300781-6.609375 3.300781zm0 0" fill="#ffaa5f"/><path d="m383.492188 361.808594c-3.03125 0-5.945313-1.671875-7.394532-4.566406l-.515625-1.03125c-2.042969-4.082032-.386719-9.039063 3.691407-11.082032 4.082031-2.039062 9.042968-.386718 11.082031 3.695313l.515625 1.03125c2.039062 4.082031.386718 9.039062-3.691406 11.082031-1.1875.589844-2.445313.871094-3.6875.871094zm0 0" fill="#ffaa5f"/></svg>