<svg height="511pt" viewBox="0 0 511 511.99888" width="511pt" xmlns="http://www.w3.org/2000/svg"><path d="m423.03125 75.320312c-3.898438 3.910157-3.898438 10.238282 0 14.148438 3.910156 3.898438 10.238281 3.898438 14.148438 0 3.898437-3.910156 3.898437-10.238281 0-14.148438-3.910157-3.898437-10.238282-3.898437-14.148438 0zm0 0"/><path d="m423.015625.125c-58.890625 2.273438-130.398437 30.085938-187.308594 79.84375-36.480469-7.996094-74.914062 3.097656-101.449219 29.632812-11.695312 11.691407-11.695312 30.71875 0 42.414063l32.492188 32.492187c-20.570312 59.320313-24.496094 122.644532-25.015625 154.957032-17.8125-11.792969-38.691406-18.128906-60.542969-18.128906-29.378906 0-56.992187 11.4375-77.765625 32.210937-3.902343 3.902344-3.902343 10.234375 0 14.136719 20.773438 20.769531 48.386719 32.210937 77.765625 32.210937 13.253906 0 26.144532-2.335937 38.210938-6.800781-4.460938 12.070312-6.796875 24.960938-6.796875 38.214844 0 29.375 11.4375 56.992187 32.207031 77.761718 1.953125 1.953126 4.511719 2.929688 7.070312 2.929688 2.558594 0 5.117188-.976562 7.070313-2.929688 20.769531-20.769531 32.210937-48.386718 32.210937-77.761718 0-21.855469-6.335937-42.734375-18.132812-60.546875 32.320312-.515625 95.644531-4.4375 154.964844-25.007813l32.488281 32.488282c11.691406 11.691406 30.71875 11.691406 42.410156 0 26.535157-26.535157 37.628907-64.964844 29.636719-101.441407 43.800781-50.144531 77.574219-121.035156 79.84375-188.367187 1.015625-30.175782-6.179688-55.996094-19.25-69.0625-13.230469-13.230469-39.4375-20.425782-70.109375-19.246094zm-274.621094 123.617188c18.257813-18.257813 43.402344-27.578126 68.691407-26.195313-16.800782 17.394531-31.046876 39.71875-42.472657 66.542969l-26.21875-26.214844c-3.894531-3.894531-3.894531-10.238281 0-14.132812zm-122.886719 236.875c15.804688-12.5 35.222657-19.285157 55.683594-19.285157 20.460938 0 39.878906 6.785157 55.683594 19.285157-15.804688 12.5-35.222656 19.28125-55.683594 19.28125-20.460937 0-39.878906-6.785157-55.683594-19.28125zm126.375 126.375c-12.5-15.804688-19.28125-35.222657-19.28125-55.683594 0-20.460938 6.78125-39.878906 19.28125-55.683594 12.5 15.808594 19.285157 35.222656 19.285157 55.683594 0 20.460937-6.785157 39.878906-19.285157 55.683594zm236.875-122.890626c-3.894531 3.898438-10.238281 3.898438-14.132812 0l-26.21875-26.214843c26.828125-11.429688 49.152344-25.671875 66.546875-42.472657 1.382813 25.289063-7.9375 50.433594-26.195313 68.6875zm103.632813-276.339843c-.929687 27.652343-8.445313 59.363281-21.207031 89.792969-27.933594 6.84375-58.421875 1.429687-84.371094-15.160157-4.648438-2.972656-10.832031-1.613281-13.808594 3.042969-2.972656 4.648438-1.613281 10.832031 3.039063 13.808594 25.578125 16.347656 55.476562 23.746094 84.859375 20.40625-12.566406 24.496094-28.242188 47.222656-46.757813 67.757812v.003906c-3.625 4.023438-7.410156 8.011719-11.25 11.847657-55.285156 55.285156-162.785156 71.84375-241.1875 71.527343-.335937-78.332031 16.128907-185.785156 71.53125-241.183593 3.867188-3.871094 7.851563-7.648438 11.855469-11.246094 20.546875-18.539063 43.28125-34.226563 67.777344-46.800781-2.304688 20.625.640625 42.125 8.710937 62.230468 2.058594 5.132813 7.886719 7.605469 13 5.554688 5.125-2.058594 7.613281-7.878906 5.554688-13.003906-8.503907-21.1875-10.296875-44.101563-5.179688-65.054688 30.082031-12.617187 61.449219-20.121094 88.828125-21.179687 27.804688-1.074219 47.757813 5.964843 55.203125 13.40625 7.332031 7.332031 14.320313 26.953125 13.402344 54.25zm0 0"/><path d="m344.34375 137.304688c-3.898438 3.910156-3.898438 10.238281 0 14.148437 3.910156 3.898437 10.238281 3.898437 14.148438 0 3.898437-3.910156 3.898437-10.238281 0-14.148437-3.910157-3.898438-10.238282-3.898438-14.148438 0zm0 0"/></svg>