<?xml version="1.0" encoding="iso-8859-1"?>
<!-- Generator: Adobe Illustrator 19.0.0, SVG Export Plug-In . SVG Version: 6.00 Build 0)  -->
<svg version="1.1" id="Capa_1" xmlns="http://www.w3.org/2000/svg" xmlns:xlink="http://www.w3.org/1999/xlink" x="0px" y="0px"
	 viewBox="0 0 480.059 480.059" style="enable-background:new 0 0 480.059 480.059;" xml:space="preserve">
<g>
	<g>
		<rect x="312.065" y="103.644" transform="matrix(1 -0.0054 0.0054 1 -0.5963 1.7244)" width="16" height="16"/>
	</g>
</g>
<g>
	<g>
		<path d="M472.059,255.405h-113.6l9.6-143.472c0.14-2.216-0.639-4.392-2.152-6.016c-1.565-1.542-3.653-2.438-5.848-2.512l-16,0.088
			l0.08,16h7.408l-1.912,28.616l-23.2,12.872c-24.16,13.333-53.163,14.608-78.4,3.448v-44.448l48.04-0.248l-0.08-16l-47.936,0.248
			V67.797l84.296-53.6l-8.592-13.544l-88,56c-2.308,1.469-3.705,4.016-3.704,6.752v40.656l-111.96,0.576
			c-4.418,0.025-7.979,3.628-7.954,8.046c0.001,0.164,0.007,0.327,0.018,0.49l8.904,133.52c-4.673,8.497-8.428,17.468-11.2,26.76
			c-14.04-25.117-40.553-40.69-69.328-40.72c-4.418,0-8,3.582-8,8c-0.012,15.525,4.551,30.71,13.12,43.656
			c-3.465,1.706-6.693,3.857-9.6,6.4l-2.32,2.048c-28.226,24.792-40.025,63.401-30.48,99.736l4.888,18.888
			c6.135,23.72,20.805,44.343,41.2,57.92c17.587,11.805,40.327,12.688,58.776,2.28l-0.448-0.8
			c14.976,4.431,30.431,7.042,46.032,7.776c1.6,0.08,3.2,0.08,4.856,0.112v0.656h105.496c119.187,0.106,215.894-96.428,216-215.616
			c0-0.128,0-0.256,0-0.384C480.059,258.987,476.477,255.405,472.059,255.405z M355.402,275.765v-4.36h79.672
			c-3.08,64.858-42.504,122.422-101.864,148.736c-14.812,6.548-30.486,10.942-46.544,13.048
			c12.003-10.453,22.596-22.423,31.512-35.608C342.511,361.623,355.48,319.183,355.402,275.765z M232.059,120.061v38.68
			c-26.24-7.274-54.285-3.992-78.136,9.144l-21.296,11.832l-3.936-59.128L232.059,120.061z M145.21,238.949l0.976-1.264
			l-10.216-7.88l-2.168-32.408l27.856-15.528c24.373-13.474,53.674-14.661,79.056-3.2c29.996,13.57,64.639,12.176,93.448-3.76
			l14.136-7.848l-3.584,53.792c-1.785-1.374-3.736-2.516-5.808-3.4l-11.952-4.984c-6.382-2.679-13.639-2.296-19.704,1.04
			c-6.217,3.403-10.533,9.467-11.712,16.456c-8.482,49.146-34.087,93.704-72.28,125.776c-2.813-24.318-14.532-46.732-32.896-62.92
			l-2.32-2.048c-16.149-14.377-40.405-14.718-56.952-0.8l-10.072,8.4C123.537,276.736,131.9,256.193,145.21,238.949z
			 M103.483,303.653c-28.245-3.892-50.452-26.099-54.344-54.344C77.378,253.211,99.58,275.413,103.483,303.653z M58.218,456.077
			c-17.118-11.401-29.432-28.713-34.584-48.624l-4.896-18.88c-8.008-30.52,1.919-62.945,25.64-83.752v0l2.32-2.048
			c2.841-2.423,6.142-4.249,9.704-5.368c14.832,14.623,34.828,22.814,55.656,22.8c0.51-0.052,1.014-0.154,1.504-0.304
			c4.548-0.291,8.89-2.007,12.408-4.904l15.32-12.8c10.5-8.825,25.886-8.604,36.128,0.52l2.32,2.048
			c17.954,15.814,28.227,38.595,28.192,62.52c-31.124,21.833-67.561,34.864-105.472,37.72l-35.432,2.664
			c-4.182,0.315-7.412,3.806-7.4,8v29.144c0.009,2.849,1.532,5.479,4,6.904l1.112,0.656c6.547,3.801,13.311,7.218,20.256,10.232
			C75.579,463.65,66.097,461.338,58.218,456.077z M154.459,462.653l-0.008,0.008c-27.651-1.316-54.622-9.015-78.8-22.496v-17.096
			l28-2.112c104.155-7.794,189.704-85.347,207.648-188.24c0.354-2.189,1.697-4.092,3.64-5.16c1.797-1,3.955-1.115,5.848-0.312
			l11.952,4.992c4.023,1.667,6.643,5.597,6.632,9.952v33.6c0.071,40.226-11.941,79.546-34.48,112.864
			C271.247,438.055,214.126,466.154,154.459,462.653z M264.059,463.405h-25.496c8.837-3.804,17.362-8.295,25.496-13.432v0.744
			c26.051,0.049,51.82-5.386,75.632-15.952c65.139-28.881,108.293-92.172,111.384-163.36h12.824
			C459.71,378.712,371.447,463.513,264.059,463.405z"/>
	</g>
</g>
<g>
	<g>
		<rect x="368.059" y="287.405" width="16" height="16"/>
	</g>
</g>
<g>
	<g>
		<rect x="344.059" y="367.405" width="16" height="16"/>
	</g>
</g>
<g>
	<g>
		<rect x="368.059" y="335.405" width="16" height="16"/>
	</g>
</g>
<g>
</g>
<g>
</g>
<g>
</g>
<g>
</g>
<g>
</g>
<g>
</g>
<g>
</g>
<g>
</g>
<g>
</g>
<g>
</g>
<g>
</g>
<g>
</g>
<g>
</g>
<g>
</g>
<g>
</g>
</svg>
